<?xml version="1.0" encoding="utf-8"?><svg version="1.1" id="Layer_1" xmlns="http://www.w3.org/2000/svg" xmlns:xlink="http://www.w3.org/1999/xlink" x="0px" y="0px" viewBox="0 0 566.9 206.8" style="enable-background:new 0 0 566.9 206.8;" xml:space="preserve"><style type="text/css">.st0{fill:url(#SVGID_1_);}.st1{fill:#FFFFFF;}.st2{fill:#1E2226;}.st3{fill:url(#SVGID_00000155145637012808008340000009013983818592202625_);}.st4{fill:url(#SVGID_00000098196188062111390610000000839711770720608159_);}.st5{fill:url(#SVGID_00000125587656313036489350000000395538822403774639_);}.st6{fill:url(#SVGID_00000142167782512668728770000004433424505225878165_);}.st7{fill:url(#SVGID_00000052065830724216034620000013855823736795375261_);}.st8{fill:url(#SVGID_00000137820522784574757580000008096738235928782220_);}</style><linearGradient id="SVGID_1_" gradientUnits="userSpaceOnUse" x1="89.3403" y1="196.7594" x2="11.8241" y2="25.1166"><stop offset="0" style="stop-color:#FBD568"/><stop offset="1" style="stop-color:#BF8B56"/></linearGradient><path class="st0" d="M85.9,19.6v114.2c0,17.1-0.7,29.5-3.7,40c-1,3.3-2.3,6.9-4,10.5H72c-18.1-1.8-20.3-8.4-20.3-22.2v-58.4 c0-14.5,0.6-25,3.1-33.9c1.6-5.2,3.5-11.1,7.2-16.3c3.6-5.2,8.9-9.7,16.9-12c-7.6,1.4-17.7,4.7-27.6,10.4 c-21,11.4-26.4,24.4-26.4,46.9V162c0,13.8-2.1,20.5-19.4,22.2H0V86.6C0.6,59.2,85.7,3.9,85.9,3.9V19.6z"/><path class="st1" d="M146.6,83.9v52.4c0,26.3-22.1,47.7-49.4,47.9c12.2-11.2,15.8-24.8,15.8-44.6V50.8L146.6,83.9z"/><path class="st1" d="M251.3,41.8h-27.1l-49.6,127.4h27.2l10.5-28.9h50.9l11,28.9h28.1L251.3,41.8z M220.3,118.8l17.1-47.2l17.7,47.2 H220.3z"/><path class="st1" d="M315.2,165.1c0,7.5-0.3,12.1-0.8,13.5c-1.1,3-4.3,5.4-9.4,5.4c-1.6,0-3.8-0.3-6.1-0.7l-4.1,20.8 c6.3,1.6,11.9,2.6,16.9,2.6c13.5,0,22.4-5.9,25.5-15.5c1.5-4.8,2.3-13.1,2.3-24.9V77.1h-24.3V165.1z"/><linearGradient id="SVGID_00000042012234382807520970000012837237374326016642_" gradientUnits="userSpaceOnUse" x1="316.6874" y1="61.116" x2="337.4404" y2="46.716"><stop offset="0" style="stop-color:#FBD568"/><stop offset="1" style="stop-color:#BF8B56"/></linearGradient><path style="fill:url(#SVGID_00000042012234382807520970000012837237374326016642_);" d="M327.8,41.3c-3.5,0-6.5,1.4-8.7,3.6 c-2.2,2.2-3.5,5.2-3.5,8.6c0,3.5,1.3,6.5,3.5,8.7c2.2,2.2,5.2,3.5,8.7,3.5c3.4,0,6.4-1.3,8.6-3.5c2.2-2.2,3.6-5.2,3.6-8.7 c0-3.4-1.4-6.4-3.6-8.6C334.1,42.6,331.1,41.3,327.8,41.3z"/><path class="st1" d="M386.7,90.1v-13H364v92.2h24.5v-28.5c0-15.6,0.7-26,2-30.9c2.7-9.8,7.3-13,14.2-13c3.6,0,7.4,1.4,11.6,4 l7.5-21.3c-5.2-3.1-10.6-4.6-16.1-4.6C399.9,74.8,394.5,77.7,386.7,90.1z"/><rect x="434.2" y="41.8" class="st1" width="24.4" height="127.4"/><path class="st1" d="M541.6,77.1L520,142.5l-22-65.4H472l35.1,92.4c-2.8,10.3-7.6,17.7-18.8,17.7c-3.1,0-6.6-0.4-10.4-1.2l2.2,19.1 c4.5,1.1,9.2,1.6,13.9,1.6c9.3,0,16.7-2.2,21.7-5.7c5-3.5,8.5-8.4,12.7-19.2l5.9-16.1l32.6-88.7H541.6z"/></svg>