<svg viewBox="0 0 507.901 507.901" xmlns="http://www.w3.org/2000/svg">
  <path d="M486.9,206.7H21.1C9.4,206.7,0,216.2,0,227.8v258.7c0,11.7,9.5,21.1,21.1,21.1h465.7c11.7,0,21.1-9.5,21.1-21.1V227.9C508,216.2,498.5,206.7,486.9,206.7z" fill="#84DBFF"/>
  <circle cx="254" cy="48.3" r="48" fill="#40596B"/>
  <g>
    <path d="M210.3,68L71.6,206.7h47.9L234.2,92C223.6,87.2,215.1,78.6,210.3,68z" fill="#FFD15C"/>
    <path d="M297.7,68c-4.8,10.6-13.3,19.1-23.9,23.9l114.8,114.8h47.9L297.7,68z" fill="#FFD15C"/>
  </g>
  <g>
    <path d="M59.6,376l21.2-2.1c1.3,7.1,3.9,12.3,7.8,15.7c3.9,3.3,9.2,5,15.8,5c7,0,12.3-1.5,15.9-4.4c3.6-3,5.3-6.4,5.3-10.4c0-2.6-0.7-4.7-2.2-6.5s-4.1-3.3-7.8-4.7c-2.6-0.9-8.4-2.5-17.4-4.7c-11.7-2.9-19.9-6.4-24.6-10.7c-6.6-5.9-9.9-13.2-9.9-21.7c0-5.5,1.6-10.6,4.7-15.4s7.6-8.4,13.5-10.9s12.9-3.8,21.2-3.8c13.5,0,23.7,3,30.6,8.9c6.8,5.9,10.4,13.9,10.8,23.8l-21.8,1c-0.9-5.5-2.9-9.5-6-12c-3.1-2.4-7.7-3.6-13.8-3.6c-6.3,0-11.3,1.3-14.9,3.9c-2.3,1.7-3.5,3.9-3.5,6.7c0,2.5,1.1,4.7,3.2,6.5c2.7,2.3,9.4,4.7,20,7.2s18.4,5.1,23.5,7.8c5.1,2.7,9,6.3,11.9,11c2.9,4.6,4.3,10.4,4.3,17.2c0,6.2-1.7,12-5.1,17.4c-3.4,5.4-8.3,9.4-14.6,12s-14.1,3.9-23.5,3.9c-13.6,0-24.1-3.1-31.4-9.4C65.4,397.3,61,388.1,59.6,376z" fill="#FFFFFF"/>
    <path d="M262.8,411.1h-23.7l-9.4-24.5h-43.1l-8.9,24.5h-23.1l42-107.8h23L262.8,411.1z M222.7,368.4l-14.9-40l-14.6,40H222.7z" fill="#FFFFFF"/>
    <path d="M275,411.1V304.2h21.8V393h54.1v18.2H275V411.1z" fill="#FFFFFF"/>
    <path d="M366.4,411.1V303.3h80v18.2h-58.2v23.9h54.1v18.2h-54.1V393h60.2v18.2h-82V411.1z" fill="#FFFFFF"/>
  </g>
</svg>
